<mxfile host="app.diagrams.net" modified="2024-06-03T13:36:12.277Z" agent="Mozilla/5.0 (Macintosh; Intel Mac OS X 10_15_7) AppleWebKit/537.36 (KHTML, like Gecko) Chrome/125.0.0.0 Safari/537.36" etag="zQyOpwpvIFaAS-qeAOnd" version="24.4.13" type="device">
  <diagram id="-2DjYDvpzn5wzvAoBuDy" name="Page-1">
    <mxGraphModel dx="1601" dy="1246" grid="0" gridSize="10" guides="1" tooltips="1" connect="1" arrows="1" fold="1" page="0" pageScale="1" pageWidth="850" pageHeight="1100" math="0" shadow="0">
      <root>
        <mxCell id="0" />
        <mxCell id="1" parent="0" />
        <mxCell id="FoxLwYXWtzSTvaqwiJWA-57" style="edgeStyle=none;curved=1;rounded=0;orthogonalLoop=1;jettySize=auto;html=1;fontFamily=Architects Daughter;fontSource=https%3A%2F%2Ffonts.googleapis.com%2Fcss%3Ffamily%3DArchitects%2BDaughter;fontSize=16;startSize=14;endArrow=open;endSize=14;sourcePerimeterSpacing=8;targetPerimeterSpacing=8;" parent="1" source="FoxLwYXWtzSTvaqwiJWA-6" target="FoxLwYXWtzSTvaqwiJWA-9" edge="1">
          <mxGeometry relative="1" as="geometry" />
        </mxCell>
        <mxCell id="FoxLwYXWtzSTvaqwiJWA-6" value="Frontend" style="verticalAlign=top;align=left;spacingTop=8;spacingLeft=2;spacingRight=12;shape=cube;size=10;direction=south;fontStyle=4;html=1;whiteSpace=wrap;fontFamily=Architects Daughter;fontSource=https%3A%2F%2Ffonts.googleapis.com%2Fcss%3Ffamily%3DArchitects%2BDaughter;" parent="1" vertex="1">
          <mxGeometry x="-112" y="-70" width="281" height="220" as="geometry" />
        </mxCell>
        <mxCell id="FoxLwYXWtzSTvaqwiJWA-7" value="Web Application" style="shape=module;align=left;spacingLeft=20;align=center;verticalAlign=top;whiteSpace=wrap;html=1;fontFamily=Architects Daughter;fontSource=https%3A%2F%2Ffonts.googleapis.com%2Fcss%3Ffamily%3DArchitects%2BDaughter;" parent="1" vertex="1">
          <mxGeometry x="-46" y="-21" width="100" height="50" as="geometry" />
        </mxCell>
        <mxCell id="FoxLwYXWtzSTvaqwiJWA-8" value="Mobile Application" style="shape=module;align=left;spacingLeft=20;align=center;verticalAlign=top;whiteSpace=wrap;html=1;fontFamily=Architects Daughter;fontSource=https%3A%2F%2Ffonts.googleapis.com%2Fcss%3Ffamily%3DArchitects%2BDaughter;" parent="1" vertex="1">
          <mxGeometry x="-46" y="57" width="100" height="50" as="geometry" />
        </mxCell>
        <mxCell id="FoxLwYXWtzSTvaqwiJWA-9" value="Backend&lt;div&gt;&lt;br&gt;&lt;/div&gt;" style="verticalAlign=top;align=left;spacingTop=8;spacingLeft=2;spacingRight=12;shape=cube;size=10;direction=south;fontStyle=4;html=1;whiteSpace=wrap;fontFamily=Architects Daughter;fontSource=https%3A%2F%2Ffonts.googleapis.com%2Fcss%3Ffamily%3DArchitects%2BDaughter;" parent="1" vertex="1">
          <mxGeometry x="413" y="-10" width="443" height="382" as="geometry" />
        </mxCell>
        <mxCell id="FoxLwYXWtzSTvaqwiJWA-10" value="Authentication Service" style="shape=module;align=left;spacingLeft=20;align=center;verticalAlign=top;whiteSpace=wrap;html=1;fontFamily=Architects Daughter;fontSource=https%3A%2F%2Ffonts.googleapis.com%2Fcss%3Ffamily%3DArchitects%2BDaughter;" parent="1" vertex="1">
          <mxGeometry x="507" y="87" width="100" height="50" as="geometry" />
        </mxCell>
        <mxCell id="FoxLwYXWtzSTvaqwiJWA-11" value="API Gateway" style="shape=module;align=left;spacingLeft=20;align=center;verticalAlign=top;whiteSpace=wrap;html=1;fontFamily=Architects Daughter;fontSource=https%3A%2F%2Ffonts.googleapis.com%2Fcss%3Ffamily%3DArchitects%2BDaughter;" parent="1" vertex="1">
          <mxGeometry x="503" y="15" width="100" height="50" as="geometry" />
        </mxCell>
        <mxCell id="FoxLwYXWtzSTvaqwiJWA-12" value="User Service" style="shape=module;align=left;spacingLeft=20;align=center;verticalAlign=top;whiteSpace=wrap;html=1;fontFamily=Architects Daughter;fontSource=https%3A%2F%2Ffonts.googleapis.com%2Fcss%3Ffamily%3DArchitects%2BDaughter;" parent="1" vertex="1">
          <mxGeometry x="507" y="152" width="100" height="50" as="geometry" />
        </mxCell>
        <mxCell id="FoxLwYXWtzSTvaqwiJWA-13" value="Concert Service" style="shape=module;align=left;spacingLeft=20;align=center;verticalAlign=top;whiteSpace=wrap;html=1;fontFamily=Architects Daughter;fontSource=https%3A%2F%2Ffonts.googleapis.com%2Fcss%3Ffamily%3DArchitects%2BDaughter;" parent="1" vertex="1">
          <mxGeometry x="670" y="223" width="100" height="50" as="geometry" />
        </mxCell>
        <mxCell id="FoxLwYXWtzSTvaqwiJWA-14" value="Ticket Service" style="shape=module;align=left;spacingLeft=20;align=center;verticalAlign=top;whiteSpace=wrap;html=1;fontFamily=Architects Daughter;fontSource=https%3A%2F%2Ffonts.googleapis.com%2Fcss%3Ffamily%3DArchitects%2BDaughter;" parent="1" vertex="1">
          <mxGeometry x="662" y="18" width="100" height="50" as="geometry" />
        </mxCell>
        <mxCell id="FoxLwYXWtzSTvaqwiJWA-15" value="Payment Service" style="shape=module;align=left;spacingLeft=20;align=center;verticalAlign=top;whiteSpace=wrap;html=1;fontFamily=Architects Daughter;fontSource=https%3A%2F%2Ffonts.googleapis.com%2Fcss%3Ffamily%3DArchitects%2BDaughter;" parent="1" vertex="1">
          <mxGeometry x="664" y="87" width="100" height="50" as="geometry" />
        </mxCell>
        <mxCell id="FoxLwYXWtzSTvaqwiJWA-16" value="Email Service" style="shape=module;align=left;spacingLeft=20;align=center;verticalAlign=top;whiteSpace=wrap;html=1;fontFamily=Architects Daughter;fontSource=https%3A%2F%2Ffonts.googleapis.com%2Fcss%3Ffamily%3DArchitects%2BDaughter;" parent="1" vertex="1">
          <mxGeometry x="664" y="152" width="100" height="50" as="geometry" />
        </mxCell>
        <mxCell id="FoxLwYXWtzSTvaqwiJWA-17" value="Infrastructure" style="verticalAlign=top;align=left;spacingTop=8;spacingLeft=2;spacingRight=12;shape=cube;size=10;direction=south;fontStyle=4;html=1;whiteSpace=wrap;fontFamily=Architects Daughter;fontSource=https%3A%2F%2Ffonts.googleapis.com%2Fcss%3Ffamily%3DArchitects%2BDaughter;" parent="1" vertex="1">
          <mxGeometry x="-77" y="309" width="392" height="423" as="geometry" />
        </mxCell>
        <mxCell id="FoxLwYXWtzSTvaqwiJWA-18" value="Database&lt;div&gt;(PostgreSQL)&lt;/div&gt;" style="shape=module;align=left;spacingLeft=20;align=center;verticalAlign=top;whiteSpace=wrap;html=1;fontFamily=Architects Daughter;fontSource=https%3A%2F%2Ffonts.googleapis.com%2Fcss%3Ffamily%3DArchitects%2BDaughter;" parent="1" vertex="1">
          <mxGeometry x="28" y="354" width="100" height="50" as="geometry" />
        </mxCell>
        <mxCell id="FoxLwYXWtzSTvaqwiJWA-19" value="Caching (Redis)" style="shape=module;align=left;spacingLeft=20;align=center;verticalAlign=top;whiteSpace=wrap;html=1;fontFamily=Architects Daughter;fontSource=https%3A%2F%2Ffonts.googleapis.com%2Fcss%3Ffamily%3DArchitects%2BDaughter;" parent="1" vertex="1">
          <mxGeometry x="33" y="440" width="100" height="50" as="geometry" />
        </mxCell>
        <mxCell id="FoxLwYXWtzSTvaqwiJWA-20" value="Containerzation &amp;amp; Orchestration (Docker &amp;amp; Kubernetes)" style="shape=module;align=left;spacingLeft=20;align=center;verticalAlign=top;whiteSpace=wrap;html=1;fontFamily=Architects Daughter;fontSource=https%3A%2F%2Ffonts.googleapis.com%2Fcss%3Ffamily%3DArchitects%2BDaughter;" parent="1" vertex="1">
          <mxGeometry x="151" y="476" width="116" height="69" as="geometry" />
        </mxCell>
        <mxCell id="FoxLwYXWtzSTvaqwiJWA-21" value="Message Broker&lt;br&gt;(RabbitMQ)" style="shape=module;align=left;spacingLeft=20;align=center;verticalAlign=top;whiteSpace=wrap;html=1;fontFamily=Architects Daughter;fontSource=https%3A%2F%2Ffonts.googleapis.com%2Fcss%3Ffamily%3DArchitects%2BDaughter;" parent="1" vertex="1">
          <mxGeometry x="33" y="518" width="100" height="50" as="geometry" />
        </mxCell>
        <mxCell id="FoxLwYXWtzSTvaqwiJWA-22" value="Cloud Service&lt;br&gt;(GCP)" style="shape=module;align=left;spacingLeft=20;align=center;verticalAlign=top;whiteSpace=wrap;html=1;fontFamily=Architects Daughter;fontSource=https%3A%2F%2Ffonts.googleapis.com%2Fcss%3Ffamily%3DArchitects%2BDaughter;" parent="1" vertex="1">
          <mxGeometry x="33" y="596" width="100" height="50" as="geometry" />
        </mxCell>
        <mxCell id="FoxLwYXWtzSTvaqwiJWA-23" value="Cloud Infrastructure" style="verticalAlign=top;align=left;spacingTop=8;spacingLeft=2;spacingRight=12;shape=cube;size=10;direction=south;fontStyle=4;html=1;whiteSpace=wrap;fontFamily=Architects Daughter;fontSource=https%3A%2F%2Ffonts.googleapis.com%2Fcss%3Ffamily%3DArchitects%2BDaughter;" parent="1" vertex="1">
          <mxGeometry x="57" y="856" width="560" height="896" as="geometry" />
        </mxCell>
        <mxCell id="FoxLwYXWtzSTvaqwiJWA-46" style="edgeStyle=none;curved=1;rounded=0;orthogonalLoop=1;jettySize=auto;html=1;fontFamily=Architects Daughter;fontSource=https%3A%2F%2Ffonts.googleapis.com%2Fcss%3Ffamily%3DArchitects%2BDaughter;fontSize=16;startSize=14;endArrow=open;endSize=14;sourcePerimeterSpacing=8;targetPerimeterSpacing=8;" parent="1" source="FoxLwYXWtzSTvaqwiJWA-24" target="FoxLwYXWtzSTvaqwiJWA-25" edge="1">
          <mxGeometry relative="1" as="geometry" />
        </mxCell>
        <mxCell id="FoxLwYXWtzSTvaqwiJWA-24" value="Load Balancer" style="shape=module;align=left;spacingLeft=20;align=center;verticalAlign=top;whiteSpace=wrap;html=1;fontFamily=Architects Daughter;fontSource=https%3A%2F%2Ffonts.googleapis.com%2Fcss%3Ffamily%3DArchitects%2BDaughter;" parent="1" vertex="1">
          <mxGeometry x="138" y="929" width="100" height="50" as="geometry" />
        </mxCell>
        <mxCell id="FoxLwYXWtzSTvaqwiJWA-25" value="API Gateway" style="shape=module;align=left;spacingLeft=20;align=center;verticalAlign=top;whiteSpace=wrap;html=1;fontFamily=Architects Daughter;fontSource=https%3A%2F%2Ffonts.googleapis.com%2Fcss%3Ffamily%3DArchitects%2BDaughter;" parent="1" vertex="1">
          <mxGeometry x="140" y="1024" width="100" height="50" as="geometry" />
        </mxCell>
        <mxCell id="FoxLwYXWtzSTvaqwiJWA-54" style="edgeStyle=none;curved=1;rounded=0;orthogonalLoop=1;jettySize=auto;html=1;fontFamily=Architects Daughter;fontSource=https%3A%2F%2Ffonts.googleapis.com%2Fcss%3Ffamily%3DArchitects%2BDaughter;fontSize=16;startSize=14;endArrow=open;endSize=14;sourcePerimeterSpacing=8;targetPerimeterSpacing=8;" parent="1" source="FoxLwYXWtzSTvaqwiJWA-27" target="FoxLwYXWtzSTvaqwiJWA-24" edge="1">
          <mxGeometry relative="1" as="geometry" />
        </mxCell>
        <mxCell id="FoxLwYXWtzSTvaqwiJWA-27" value="Mobile App" style="shape=module;align=left;spacingLeft=20;align=center;verticalAlign=top;whiteSpace=wrap;html=1;fontFamily=Architects Daughter;fontSource=https%3A%2F%2Ffonts.googleapis.com%2Fcss%3Ffamily%3DArchitects%2BDaughter;" parent="1" vertex="1">
          <mxGeometry x="-98" y="929" width="100" height="50" as="geometry" />
        </mxCell>
        <mxCell id="FoxLwYXWtzSTvaqwiJWA-49" style="edgeStyle=none;curved=1;rounded=0;orthogonalLoop=1;jettySize=auto;html=1;fontFamily=Architects Daughter;fontSource=https%3A%2F%2Ffonts.googleapis.com%2Fcss%3Ffamily%3DArchitects%2BDaughter;fontSize=16;startSize=14;endArrow=open;endSize=14;sourcePerimeterSpacing=8;targetPerimeterSpacing=8;" parent="1" source="FoxLwYXWtzSTvaqwiJWA-28" target="FoxLwYXWtzSTvaqwiJWA-36" edge="1">
          <mxGeometry relative="1" as="geometry" />
        </mxCell>
        <mxCell id="FoxLwYXWtzSTvaqwiJWA-50" style="edgeStyle=none;curved=1;rounded=0;orthogonalLoop=1;jettySize=auto;html=1;fontFamily=Architects Daughter;fontSource=https%3A%2F%2Ffonts.googleapis.com%2Fcss%3Ffamily%3DArchitects%2BDaughter;fontSize=16;startSize=14;endArrow=open;endSize=14;sourcePerimeterSpacing=8;targetPerimeterSpacing=8;exitX=0;exitY=0;exitDx=120.5;exitDy=452;exitPerimeter=0;entryX=0;entryY=0;entryDx=74.5;entryDy=452;entryPerimeter=0;" parent="1" source="FoxLwYXWtzSTvaqwiJWA-28" target="FoxLwYXWtzSTvaqwiJWA-37" edge="1">
          <mxGeometry relative="1" as="geometry">
            <Array as="points">
              <mxPoint x="73" y="1239" />
              <mxPoint x="69" y="1482" />
              <mxPoint x="75" y="1668" />
            </Array>
          </mxGeometry>
        </mxCell>
        <mxCell id="FoxLwYXWtzSTvaqwiJWA-28" value="Kuberneters Cluster" style="verticalAlign=top;align=left;spacingTop=8;spacingLeft=2;spacingRight=12;shape=cube;size=10;direction=south;fontStyle=4;html=1;whiteSpace=wrap;fontFamily=Architects Daughter;fontSource=https%3A%2F%2Ffonts.googleapis.com%2Fcss%3Ffamily%3DArchitects%2BDaughter;" parent="1" vertex="1">
          <mxGeometry x="83" y="1118" width="513" height="251" as="geometry" />
        </mxCell>
        <mxCell id="FoxLwYXWtzSTvaqwiJWA-29" value="Authentication Service" style="shape=module;align=left;spacingLeft=20;align=center;verticalAlign=top;whiteSpace=wrap;html=1;fontFamily=Architects Daughter;fontSource=https%3A%2F%2Ffonts.googleapis.com%2Fcss%3Ffamily%3DArchitects%2BDaughter;" parent="1" vertex="1">
          <mxGeometry x="89" y="1172" width="100" height="50" as="geometry" />
        </mxCell>
        <mxCell id="FoxLwYXWtzSTvaqwiJWA-30" value="Email Service" style="shape=module;align=left;spacingLeft=20;align=center;verticalAlign=top;whiteSpace=wrap;html=1;fontFamily=Architects Daughter;fontSource=https%3A%2F%2Ffonts.googleapis.com%2Fcss%3Ffamily%3DArchitects%2BDaughter;" parent="1" vertex="1">
          <mxGeometry x="346" y="1258" width="100" height="50" as="geometry" />
        </mxCell>
        <mxCell id="FoxLwYXWtzSTvaqwiJWA-31" value="Concert Service" style="shape=module;align=left;spacingLeft=20;align=center;verticalAlign=top;whiteSpace=wrap;html=1;fontFamily=Architects Daughter;fontSource=https%3A%2F%2Ffonts.googleapis.com%2Fcss%3Ffamily%3DArchitects%2BDaughter;" parent="1" vertex="1">
          <mxGeometry x="457" y="1255" width="100" height="50" as="geometry" />
        </mxCell>
        <mxCell id="FoxLwYXWtzSTvaqwiJWA-32" value="User Service" style="shape=module;align=left;spacingLeft=20;align=center;verticalAlign=top;whiteSpace=wrap;html=1;fontFamily=Architects Daughter;fontSource=https%3A%2F%2Ffonts.googleapis.com%2Fcss%3Ffamily%3DArchitects%2BDaughter;" parent="1" vertex="1">
          <mxGeometry x="201" y="1170" width="100" height="50" as="geometry" />
        </mxCell>
        <mxCell id="FoxLwYXWtzSTvaqwiJWA-33" value="Payment Service" style="shape=module;align=left;spacingLeft=20;align=center;verticalAlign=top;whiteSpace=wrap;html=1;fontFamily=Architects Daughter;fontSource=https%3A%2F%2Ffonts.googleapis.com%2Fcss%3Ffamily%3DArchitects%2BDaughter;" parent="1" vertex="1">
          <mxGeometry x="220" y="1260" width="100" height="50" as="geometry" />
        </mxCell>
        <mxCell id="FoxLwYXWtzSTvaqwiJWA-34" value="Ticket Service" style="shape=module;align=left;spacingLeft=20;align=center;verticalAlign=top;whiteSpace=wrap;html=1;fontFamily=Architects Daughter;fontSource=https%3A%2F%2Ffonts.googleapis.com%2Fcss%3Ffamily%3DArchitects%2BDaughter;" parent="1" vertex="1">
          <mxGeometry x="89" y="1260" width="100" height="50" as="geometry" />
        </mxCell>
        <mxCell id="FoxLwYXWtzSTvaqwiJWA-36" value="Storage" style="verticalAlign=top;align=left;spacingTop=8;spacingLeft=2;spacingRight=12;shape=cube;size=10;direction=south;fontStyle=4;html=1;whiteSpace=wrap;fontFamily=Architects Daughter;fontSource=https%3A%2F%2Ffonts.googleapis.com%2Fcss%3Ffamily%3DArchitects%2BDaughter;" parent="1" vertex="1">
          <mxGeometry x="119" y="1418" width="452" height="139" as="geometry" />
        </mxCell>
        <mxCell id="FoxLwYXWtzSTvaqwiJWA-37" value="Messaging and other cloud services&amp;nbsp;" style="verticalAlign=top;align=left;spacingTop=8;spacingLeft=2;spacingRight=12;shape=cube;size=10;direction=south;fontStyle=4;html=1;whiteSpace=wrap;fontFamily=Architects Daughter;fontSource=https%3A%2F%2Ffonts.googleapis.com%2Fcss%3Ffamily%3DArchitects%2BDaughter;" parent="1" vertex="1">
          <mxGeometry x="105" y="1593" width="452" height="139" as="geometry" />
        </mxCell>
        <mxCell id="FoxLwYXWtzSTvaqwiJWA-39" value="RabbitMQ&lt;br&gt;(Message Broker)" style="shape=module;align=left;spacingLeft=20;align=center;verticalAlign=top;whiteSpace=wrap;html=1;fontFamily=Architects Daughter;fontSource=https%3A%2F%2Ffonts.googleapis.com%2Fcss%3Ffamily%3DArchitects%2BDaughter;" parent="1" vertex="1">
          <mxGeometry x="169" y="1646" width="100" height="50" as="geometry" />
        </mxCell>
        <mxCell id="FoxLwYXWtzSTvaqwiJWA-40" value="Other Cloud Services (Networking, storage)" style="shape=module;align=left;spacingLeft=20;align=center;verticalAlign=top;whiteSpace=wrap;html=1;fontFamily=Architects Daughter;fontSource=https%3A%2F%2Ffonts.googleapis.com%2Fcss%3Ffamily%3DArchitects%2BDaughter;" parent="1" vertex="1">
          <mxGeometry x="400" y="1649" width="143" height="50" as="geometry" />
        </mxCell>
        <mxCell id="FoxLwYXWtzSTvaqwiJWA-41" value="Redis (Caching)" style="shape=module;align=left;spacingLeft=20;align=center;verticalAlign=top;whiteSpace=wrap;html=1;fontFamily=Architects Daughter;fontSource=https%3A%2F%2Ffonts.googleapis.com%2Fcss%3Ffamily%3DArchitects%2BDaughter;" parent="1" vertex="1">
          <mxGeometry x="380" y="1445" width="100" height="50" as="geometry" />
        </mxCell>
        <mxCell id="FoxLwYXWtzSTvaqwiJWA-42" value="PostgreSQL&lt;br&gt;(Database)" style="shape=module;align=left;spacingLeft=20;align=center;verticalAlign=top;whiteSpace=wrap;html=1;fontFamily=Architects Daughter;fontSource=https%3A%2F%2Ffonts.googleapis.com%2Fcss%3Ffamily%3DArchitects%2BDaughter;" parent="1" vertex="1">
          <mxGeometry x="159" y="1447" width="100" height="50" as="geometry" />
        </mxCell>
        <mxCell id="FoxLwYXWtzSTvaqwiJWA-47" style="edgeStyle=none;curved=1;rounded=0;orthogonalLoop=1;jettySize=auto;html=1;entryX=0.008;entryY=0.819;entryDx=0;entryDy=0;entryPerimeter=0;fontFamily=Architects Daughter;fontSource=https%3A%2F%2Ffonts.googleapis.com%2Fcss%3Ffamily%3DArchitects%2BDaughter;fontSize=16;startSize=14;endArrow=open;endSize=14;sourcePerimeterSpacing=8;targetPerimeterSpacing=8;" parent="1" source="FoxLwYXWtzSTvaqwiJWA-25" target="FoxLwYXWtzSTvaqwiJWA-28" edge="1">
          <mxGeometry relative="1" as="geometry" />
        </mxCell>
        <mxCell id="FoxLwYXWtzSTvaqwiJWA-60" style="edgeStyle=none;curved=1;rounded=0;orthogonalLoop=1;jettySize=auto;html=1;entryX=0;entryY=0;entryDx=196;entryDy=451;entryPerimeter=0;fontFamily=Architects Daughter;fontSource=https%3A%2F%2Ffonts.googleapis.com%2Fcss%3Ffamily%3DArchitects%2BDaughter;fontSize=16;startSize=14;endArrow=open;endSize=14;sourcePerimeterSpacing=8;targetPerimeterSpacing=8;" parent="1" source="FoxLwYXWtzSTvaqwiJWA-17" target="FoxLwYXWtzSTvaqwiJWA-9" edge="1">
          <mxGeometry relative="1" as="geometry" />
        </mxCell>
        <mxCell id="FoxLwYXWtzSTvaqwiJWA-61" style="edgeStyle=none;curved=1;rounded=0;orthogonalLoop=1;jettySize=auto;html=1;entryX=0.513;entryY=0.016;entryDx=0;entryDy=0;entryPerimeter=0;fontFamily=Architects Daughter;fontSource=https%3A%2F%2Ffonts.googleapis.com%2Fcss%3Ffamily%3DArchitects%2BDaughter;fontSize=16;startSize=14;endArrow=open;endSize=14;sourcePerimeterSpacing=8;targetPerimeterSpacing=8;" parent="1" source="FoxLwYXWtzSTvaqwiJWA-9" target="FoxLwYXWtzSTvaqwiJWA-17" edge="1">
          <mxGeometry relative="1" as="geometry" />
        </mxCell>
        <mxCell id="E49vankJNJ02fwnauAXD-1" value="Customer Service" style="shape=module;align=left;spacingLeft=20;align=center;verticalAlign=top;whiteSpace=wrap;html=1;fontFamily=Architects Daughter;fontSource=https%3A%2F%2Ffonts.googleapis.com%2Fcss%3Ffamily%3DArchitects%2BDaughter;" vertex="1" parent="1">
          <mxGeometry x="511" y="226" width="100" height="50" as="geometry" />
        </mxCell>
        <mxCell id="E49vankJNJ02fwnauAXD-2" value="Concert Management Service" style="shape=module;align=left;spacingLeft=20;align=center;verticalAlign=top;whiteSpace=wrap;html=1;fontFamily=Architects Daughter;fontSource=https%3A%2F%2Ffonts.googleapis.com%2Fcss%3Ffamily%3DArchitects%2BDaughter;" vertex="1" parent="1">
          <mxGeometry x="674" y="291" width="100" height="50" as="geometry" />
        </mxCell>
        <mxCell id="E49vankJNJ02fwnauAXD-3" value="Account Service" style="shape=module;align=left;spacingLeft=20;align=center;verticalAlign=top;whiteSpace=wrap;html=1;fontFamily=Architects Daughter;fontSource=https%3A%2F%2Ffonts.googleapis.com%2Fcss%3Ffamily%3DArchitects%2BDaughter;" vertex="1" parent="1">
          <mxGeometry x="513" y="296" width="100" height="50" as="geometry" />
        </mxCell>
        <mxCell id="E49vankJNJ02fwnauAXD-4" value="Customer Service" style="shape=module;align=left;spacingLeft=20;align=center;verticalAlign=top;whiteSpace=wrap;html=1;fontFamily=Architects Daughter;fontSource=https%3A%2F%2Ffonts.googleapis.com%2Fcss%3Ffamily%3DArchitects%2BDaughter;" vertex="1" parent="1">
          <mxGeometry x="313" y="1170" width="100" height="50" as="geometry" />
        </mxCell>
        <mxCell id="E49vankJNJ02fwnauAXD-5" value="Account Service" style="shape=module;align=left;spacingLeft=20;align=center;verticalAlign=top;whiteSpace=wrap;html=1;fontFamily=Architects Daughter;fontSource=https%3A%2F%2Ffonts.googleapis.com%2Fcss%3Ffamily%3DArchitects%2BDaughter;" vertex="1" parent="1">
          <mxGeometry x="436" y="1168" width="100" height="50" as="geometry" />
        </mxCell>
        <mxCell id="E49vankJNJ02fwnauAXD-6" value="TicketManagement Service" style="shape=module;align=left;spacingLeft=20;align=center;verticalAlign=top;whiteSpace=wrap;html=1;fontFamily=Architects Daughter;fontSource=https%3A%2F%2Ffonts.googleapis.com%2Fcss%3Ffamily%3DArchitects%2BDaughter;" vertex="1" parent="1">
          <mxGeometry x="439" y="1314" width="130" height="51" as="geometry" />
        </mxCell>
      </root>
    </mxGraphModel>
  </diagram>
</mxfile>
